<?xml version="1.0" encoding="UTF-8"?>
<svg id="Layer_1" data-name="Layer 1" xmlns="http://www.w3.org/2000/svg" viewBox="0 0 876.26 350.81">
  <defs>
    <style>
      .cls-1 {
        fill: #a58037;
      }
    </style>
  </defs>
  <path class="cls-1" d="m199.02,226.6s45.66-42.33,111.31-35.99,116.98,23.66,127.65,27c10.66,3.33,34.33,10,52.99,11,18.66,1,27.33,3,27.33,3l-4,8.67s-13.66,1.67-11.33,7c2.33,5.33-.33,7,8.33,7h14.66l-3.67,10s-15,6-15.33,15.66c-.33,9.67,1.33,23,.33,28.33h-5.33s10-63.99-45.33-62.99c-55.32,1-50.99,57.32-50.99,57.32l.33,14h-178.64s.67-21.66-3.67-25.66l8.67,1.67s5,7.33,5,10.66l152.97,1s-3.67-22,2.33-32.99c6-11,8.33-15,8.33-15,0,0-116.65,15-180.3.67s-92.57,19.33-88.32,59.66l-81.24,1.33v-11.25s13.75-4.75,17.25-.25c3.5,4.5,18.25,4,18.25,4,0,0,6.25-6.5,4.5-11-1.75-4.5-27.25-5.5-30.74-2.75,0,0,42.74-63.74,136.23-53.99,93.48,9.75,170.22,19.5,210.46-14.5,0,0-77.07-62.36-208.05-1.58Z"/>
  <g>
    <g>
      <path class="cls-1" d="m363,181.28S578.9,5.44,624.43,46.33c45.53,40.89,139.53,148.57,189.46,177.2,49.94,28.62,36.72,48.66,36.72,48.66,0,0-20.56-32.31-35.25-33.67-14.69-1.36-57.28-28.62-61.69-32.71-4.41-4.09-136.59-158.11-164.49-141.76-27.91,16.36-142.83,68.15-155.87,77.69-13.03,9.54-70.31,39.53-70.31,39.53Z"/>
      <path class="cls-1" d="m474.62,185.37s10.28-24.53,22.03-38.17c11.75-13.63,69.03-57.25,69.03-57.25,0,0-36.72,47.71-38.19,59.97-1.47,12.27,23.5,51.8,23.5,51.8,0,0,8.81,14.99,14.69,14.99s-27.91-9.54-33.78-14.99c-5.87-5.45-3.72-29.99-11.41-39.53-7.69-9.54-19.43-6.01-19.43-6.01l-26.44,29.18Z"/>
    </g>
    <path class="cls-1" d="m591.26,97.14s-14.3,24.51-19.4,30.64c-5.11,6.13-9.95,21.49-5.49,25.55,4.47,4.06,11.57,11.21,11.57,11.21,0,0-4.13-14.3,0-20.43,4.13-6.13,13.33-46.98,13.33-46.98Z"/>
  </g>
</svg>